<svg width="128" height="128" viewBox="0 0 128 128" fill="none" xmlns="http://www.w3.org/2000/svg">
<path d="M96.0001 69.3227H69.3334V95.9893C69.3334 97.4038 68.7715 98.7604 67.7713 99.7606C66.7711 100.761 65.4146 101.323 64.0001 101.323C62.5856 101.323 61.229 100.761 60.2288 99.7606C59.2287 98.7604 58.6667 97.4038 58.6667 95.9893V69.3227H32.0001C30.5856 69.3227 29.229 68.7608 28.2288 67.7606C27.2287 66.7604 26.6667 65.4038 26.6667 63.9893C26.6667 62.5749 27.2287 61.2183 28.2288 60.2181C29.229 59.2179 30.5856 58.656 32.0001 58.656H58.6667V31.9893C58.6667 30.5749 59.2287 29.2183 60.2288 28.2181C61.229 27.2179 62.5856 26.656 64.0001 26.656C65.4146 26.656 66.7711 27.2179 67.7713 28.2181C68.7715 29.2183 69.3334 30.5749 69.3334 31.9893V58.656H96.0001C97.4146 58.656 98.7711 59.2179 99.7713 60.2181C100.772 61.2183 101.333 62.5749 101.333 63.9893C101.333 65.4038 100.772 66.7604 99.7713 67.7606C98.7711 68.7608 97.4146 69.3227 96.0001 69.3227V69.3227Z" fill="url(#paint0_linear_84_302)"/>
<rect x="2" y="2" width="124" height="124" rx="62" stroke="url(#paint1_linear_84_302)" stroke-width="4"/>
<defs>
<linearGradient id="paint0_linear_84_302" x1="101.333" y1="26.656" x2="26.6667" y2="101.323" gradientUnits="userSpaceOnUse">
<stop stop-color="#8BEAFF"/>
<stop offset="1" stop-color="#006C9E"/>
</linearGradient>
<linearGradient id="paint1_linear_84_302" x1="128" y1="0" x2="0" y2="128" gradientUnits="userSpaceOnUse">
<stop stop-color="#8BEAFF"/>
<stop offset="1" stop-color="#006C9E"/>
</linearGradient>
</defs>
</svg>
