<svg width="32" height="32" viewBox="0 0 32 32" fill="none" xmlns="http://www.w3.org/2000/svg">
<path d="M20.1669 28.1333L8.93356 16.9333C8.80023 16.8 8.70601 16.6556 8.65089 16.5C8.59489 16.3444 8.56689 16.1778 8.56689 16C8.56689 15.8222 8.59489 15.6556 8.65089 15.5C8.70601 15.3444 8.80023 15.2 8.93356 15.0667L20.1669 3.83333C20.478 3.52222 20.8669 3.36667 21.3336 3.36667C21.8002 3.36667 22.2002 3.53333 22.5336 3.86667C22.8669 4.2 23.0336 4.58889 23.0336 5.03333C23.0336 5.47778 22.8669 5.86667 22.5336 6.2L12.7336 16L22.5336 25.8C22.8447 26.1111 23.0002 26.4942 23.0002 26.9493C23.0002 27.4053 22.8336 27.8 22.5002 28.1333C22.1669 28.4667 21.778 28.6333 21.3336 28.6333C20.8891 28.6333 20.5002 28.4667 20.1669 28.1333Z" fill="white" fill-opacity="0.65"/>
</svg>
