<svg width="571" height="636" viewBox="0 0 571 636" fill="none" xmlns="http://www.w3.org/2000/svg">
<path d="M417.225 474.771C415.302 469.276 410.057 465.895 404.532 466.088C368.384 469.4 359.368 440.328 356.97 425.827C354.918 413.416 352.521 375.515 352.521 375.515C352.521 327.508 316.589 288.585 268.576 288.585C220.558 288.585 184.814 327.508 184.622 375.515C184.581 385.767 184.461 395.58 183.786 416.517C183.5 425.411 141.152 422.505 133.492 391.905C131.85 386.623 126.926 382.789 121.105 382.789C113.941 382.789 108.134 388.596 108.134 395.764C108.134 397.251 108.396 398.673 108.856 400.001L108.846 400.005C121.406 442.557 174.381 446.307 178.336 459.551C184.934 481.64 181.632 528.915 181.632 528.915V528.955V528.993V530.819H181.716C182.662 541.97 192.006 550.727 203.406 550.727C214.804 550.727 224.149 541.97 225.094 530.819H225.264C226.21 541.97 235.556 550.727 246.952 550.727C258.349 550.727 267.692 541.97 268.638 530.819H268.806C269.753 541.97 279.098 550.727 290.494 550.727C301.892 550.727 311.234 541.97 312.18 530.819H312.352C313.297 541.97 322.64 550.727 334.036 550.727C355.514 550.727 355.702 526.545 355.512 525.383L354.477 473.549C367.209 484.332 384.12 493.065 405.03 492.025V492.015C406.437 492.009 407.865 491.788 409.266 491.297C416.03 488.931 419.592 481.532 417.225 474.771Z" fill="url(#paint0_linear_39_11973)"/>
<path d="M123.937 430.897L114.044 432.401L102.337 355.372L112.23 353.868L123.937 430.897Z" fill="#745335"/>
<path d="M103.945 356.555L111.046 355.475L122.329 429.713L115.226 430.795L103.945 356.555Z" fill="#97704E"/>
<path d="M189.348 342.926C190.073 347.229 187.651 351.222 183.939 351.846L24.3619 378.72C20.6494 379.345 17.0526 376.365 16.3275 372.061L1.46136 283.797C0.736831 279.494 3.15883 275.5 6.87176 274.874L166.454 247.997C170.162 247.372 173.758 250.353 174.483 254.657L189.348 342.926Z" fill="#876346"/>
<path d="M189.348 342.927L188.033 343.148C188.108 343.588 188.144 344.024 188.144 344.449C188.144 346.019 187.657 347.457 186.861 348.532C186.061 349.608 184.984 350.317 183.718 350.532L24.1407 377.405C23.8823 377.448 23.6265 377.469 23.3719 377.469C22.0817 377.469 20.8089 376.925 19.7615 375.935C18.7177 374.945 17.9251 373.52 17.6427 371.84L2.77653 283.576C2.70267 283.136 2.66667 282.701 2.66667 282.276C2.66613 280.705 3.15267 279.267 3.94893 278.192C4.74893 277.113 5.82707 276.404 7.0932 276.189L166.676 249.312C166.933 249.269 167.189 249.248 167.442 249.248C168.73 249.248 170.002 249.792 171.05 250.784C172.094 251.773 172.886 253.199 173.169 254.879L188.033 343.148L189.348 342.927L190.664 342.704L175.798 254.436C175.421 252.196 174.362 250.251 172.885 248.849C171.412 247.449 169.493 246.581 167.442 246.581C167.041 246.581 166.637 246.615 166.233 246.683L6.65 273.56C4.6464 273.895 2.9552 275.043 1.80413 276.607C0.648401 278.173 0.00106667 280.159 0 282.276C0 282.849 0.0479986 283.432 0.146932 284.019L15.0131 372.283C15.3907 374.523 16.4489 376.468 17.9265 377.869C19.4011 379.269 21.3199 380.136 23.3719 380.136C23.7735 380.136 24.1787 380.103 24.5833 380.035L184.161 353.161C186.164 352.827 187.854 351.68 189.006 350.116C190.161 348.551 190.809 346.565 190.81 344.449C190.81 343.875 190.762 343.292 190.662 342.704L189.348 342.927Z" fill="#70523A"/>
<path d="M23.3725 375.981C21.3651 375.981 19.5323 374.095 19.111 371.592L4.24592 283.329C3.78032 280.568 5.16938 278.024 7.34018 277.659L166.921 250.781C167.094 250.752 167.269 250.737 167.441 250.737C169.449 250.737 171.281 252.624 171.704 255.125L186.566 343.395C187.032 346.156 185.642 348.7 183.469 349.065L23.8927 375.937C23.7209 375.967 23.5459 375.981 23.3725 375.981Z" fill="#97704E"/>
<path d="M370.844 576.363C370.844 578.563 326.16 580.346 271.04 580.346C215.918 580.346 171.241 578.563 171.241 576.363C171.241 574.164 215.918 572.38 271.04 572.38C326.16 572.38 370.844 574.164 370.844 576.363Z" fill="#4E596F"/>
<path d="M161.704 509.453C161.704 510.815 140.649 511.917 114.677 511.917C88.7042 511.917 67.6511 510.815 67.6511 509.453C67.6511 508.093 88.7042 506.991 114.677 506.991C140.649 506.991 161.704 508.093 161.704 509.453Z" fill="#4E596F"/>
<path d="M546.926 142.653C544.584 142.653 542.324 143.008 540.193 143.653C537.426 124.408 520.876 109.615 500.866 109.615C483.712 109.615 469.097 120.484 463.53 135.709C459.792 133.871 455.586 132.833 451.137 132.833C439.956 132.833 430.297 139.36 425.762 148.811C421.626 145 416.12 142.653 410.053 142.653C397.229 142.653 386.833 153.049 386.833 165.873H570.146C570.146 153.049 559.749 142.653 546.926 142.653Z" fill="url(#paint1_linear_39_11973)"/>
<g filter="url(#filter0_d_39_11973)">
<path d="M400.177 88.8386C400.177 69.1333 413.558 52.5613 431.729 47.6959C428.206 46.7519 424.506 46.2413 420.686 46.2413C397.16 46.2413 378.089 65.3133 378.089 88.8386C378.089 112.365 397.16 131.436 420.686 131.436C424.506 131.436 428.206 130.925 431.729 129.981C413.558 125.116 400.177 108.544 400.177 88.8386Z" fill="white"/>
</g>
<path d="M217.69 147.976C217.662 147.57 217.63 147.167 217.63 146.755C217.63 137.545 225.096 130.079 234.305 130.079C237.829 130.079 241.092 131.179 243.784 133.045C245.169 117.028 258.6 104.457 274.974 104.457C289.272 104.457 301.321 114.04 305.073 127.13C309.252 121.053 316.253 117.065 324.186 117.065C336.989 117.065 347.368 127.444 347.368 140.247C347.368 142.959 346.898 145.558 346.044 147.976H217.69Z" fill="url(#paint2_linear_39_11973)"/>
<path d="M143.64 148.084C145.21 148.084 146.724 148.321 148.152 148.753C150.005 135.867 161.093 125.96 174.498 125.96C185.992 125.96 195.781 133.239 199.51 143.435C202.016 142.203 204.833 141.508 207.814 141.508C215.302 141.508 221.769 145.879 224.806 152.207C227.577 149.655 231.264 148.084 235.326 148.084C243.913 148.084 250.874 155.045 250.874 163.632H128.08C128.08 155.045 135.044 148.084 143.64 148.084Z" fill="url(#paint3_linear_39_11973)"/>
<g filter="url(#filter1_d_39_11973)">
<path d="M347.364 88.6665L348.997 91.9758L352.65 92.5065L350.006 95.0838L350.63 98.7212L347.364 97.0039L344.096 98.7212L344.721 95.0838L342.076 92.5065L345.729 91.9758L347.364 88.6665Z" fill="#F8E005"/>
</g>
<g filter="url(#filter2_d_39_11973)">
<path d="M228.228 109.615L229.861 112.924L233.514 113.455L230.872 116.032L231.496 119.669L228.228 117.952L224.96 119.669L225.585 116.032L222.941 113.455L226.594 112.924L228.228 109.615Z" fill="#F8E005"/>
</g>
<g filter="url(#filter3_d_39_11973)">
<path d="M138.23 126.408L139.864 129.719L143.517 130.249L140.873 132.825L141.498 136.464L138.23 134.747L134.962 136.464L135.588 132.825L132.944 130.249L136.596 129.719L138.23 126.408Z" fill="#F8E005"/>
</g>
<g filter="url(#filter4_d_39_11973)">
<path d="M445.846 70.0226L446.733 71.8186L448.716 72.1066L447.281 73.5053L447.62 75.4773L445.846 74.5466L444.074 75.4773L444.413 73.5053L442.978 72.1066L444.961 71.8186L445.846 70.0226Z" fill="#F8E005"/>
</g>
<g filter="url(#filter5_d_39_11973)">
<path d="M442.445 121.864L443.649 124.303L446.341 124.693L444.393 126.592L444.853 129.272L442.445 128.008L440.037 129.272L440.497 126.592L438.549 124.693L441.242 124.303L442.445 121.864Z" fill="#F8E005"/>
</g>
<g filter="url(#filter6_d_39_11973)">
<path d="M283.105 47.772L284.384 50.3627L287.245 50.7774L285.174 52.7961L285.664 55.644L283.105 54.2987L280.546 55.644L281.036 52.7961L278.966 50.7774L281.826 50.3627L283.105 47.772Z" fill="#F8E005"/>
</g>
<g filter="url(#filter7_d_39_11973)">
<path d="M83.1766 109.077L84.4564 111.667L87.3168 112.083L85.2465 114.1L85.7356 116.948L83.1766 115.604L80.6184 116.948L81.1074 114.1L79.0381 112.083L81.8985 111.667L83.1766 109.077Z" fill="#F8E005"/>
</g>
<path d="M439.445 196.324C439.489 195.716 439.537 195.108 439.537 194.488C439.537 180.652 428.321 169.436 414.485 169.436C409.19 169.436 404.286 171.087 400.242 173.891C398.164 149.825 377.984 130.94 353.381 130.94C331.902 130.94 313.797 145.337 308.16 165.005C301.881 155.873 291.365 149.883 279.444 149.883C260.209 149.883 244.614 165.476 244.614 184.712C244.614 188.785 245.32 192.692 246.605 196.324H439.445Z" fill="url(#paint4_linear_39_11973)"/>
<path d="M361.917 114.641C361.917 115.541 361.188 116.271 360.288 116.271C359.389 116.271 358.66 115.541 358.66 114.641C358.66 113.741 359.389 113.012 360.288 113.012C361.188 113.012 361.917 113.741 361.917 114.641Z" fill="white"/>
<path d="M433.358 104.457C433.358 105.357 432.629 106.087 431.729 106.087C430.829 106.087 430.1 105.357 430.1 104.457C430.1 103.557 430.829 102.828 431.729 102.828C432.629 102.828 433.358 103.557 433.358 104.457Z" fill="white"/>
<path d="M213.859 75.4773C213.859 76.6027 212.947 77.5146 211.822 77.5146C210.697 77.5146 209.786 76.6027 209.786 75.4773C209.786 74.3533 210.697 73.4413 211.822 73.4413C212.947 73.4413 213.859 74.3533 213.859 75.4773Z" fill="white"/>
<path d="M333.064 67.9865C333.064 69.1105 332.152 70.0225 331.026 70.0225C329.902 70.0225 328.99 69.1105 328.99 67.9865C328.99 66.8611 329.902 65.9492 331.026 65.9492C332.152 65.9492 333.064 66.8611 333.064 67.9865Z" fill="white"/>
<path d="M116.714 116.948C116.714 118.073 115.802 118.985 114.677 118.985C113.553 118.985 112.641 118.073 112.641 116.948C112.641 115.823 113.553 114.912 114.677 114.912C115.802 114.912 116.714 115.823 116.714 116.948Z" fill="white"/>
<path d="M354.814 35.1639C354.814 36.3586 353.845 37.3279 352.649 37.3279C351.454 37.3279 350.486 36.3586 350.486 35.1639C350.486 33.9692 351.454 32.9999 352.649 32.9999C353.845 32.9999 354.814 33.9692 354.814 35.1639Z" fill="white"/>
<path d="M500.145 90.7027C500.145 91.4493 499.539 92.0547 498.791 92.0547C498.045 92.0547 497.439 91.4493 497.439 90.7027C497.439 89.956 498.045 89.3507 498.791 89.3507C499.539 89.3507 500.145 89.956 500.145 90.7027Z" fill="white"/>
<path d="M288.598 93.6933C288.598 94.4413 287.992 95.0466 287.245 95.0466C286.497 95.0466 285.893 94.4413 285.893 93.6933C285.893 92.9466 286.497 92.3413 287.245 92.3413C287.992 92.3413 288.598 92.9466 288.598 93.6933Z" fill="white"/>
<path d="M170.02 105.809C170.02 106.556 169.413 107.163 168.666 107.163C167.92 107.163 167.314 106.556 167.314 105.809C167.314 105.063 167.92 104.457 168.666 104.457C169.413 104.457 170.02 105.063 170.02 105.809Z" fill="white"/>
<path d="M521.624 357.768C517.677 354.417 514.382 353.951 512.462 345.464C511.664 341.929 511.156 330.967 511.156 330.967C510.765 318.857 510.696 313.181 510.673 307.255C510.561 279.479 489.886 256.961 462.106 256.961C434.33 256.961 415.174 279.527 413.544 307.255C412.961 317.152 414.06 331.668 410.91 344.135C408.738 352.732 401.256 362.787 395.145 364.776C385.89 367.788 382.805 380.128 395.145 379.615C400.682 379.384 406.837 374.451 411.945 369.085C411.809 383.433 411.813 393.952 411.813 393.952C411.704 394.624 411.812 408.613 424.237 408.613C430.829 408.613 436.234 403.548 436.782 397.096H436.882C437.428 403.548 442.833 408.613 449.426 408.613C456.02 408.613 461.425 403.548 461.973 397.096H462.07C462.618 403.548 468.024 408.613 474.617 408.613C481.21 408.613 486.616 403.548 487.162 397.096H487.261C487.808 403.548 493.216 408.613 499.808 408.613C506.4 408.613 511.806 403.548 512.354 397.096H512.402V396.019V395.995L511.889 369.224C514.198 370.955 516.718 373.192 520.081 374.987C530.193 380.385 535.458 374.617 533.449 367.532C531.992 362.388 526.793 362.152 521.624 357.768Z" fill="url(#paint5_linear_39_11973)"/>
<path d="M471.188 324.504C471.188 330.441 466.376 335.252 460.438 335.252C454.502 335.252 449.69 330.441 449.69 324.504C449.69 318.567 454.502 313.757 460.438 313.757C466.376 313.757 471.188 318.567 471.188 324.504Z" fill="#211D1D"/>
<path d="M460.456 335.252C464.309 335.252 467.681 333.217 469.577 330.171C467.764 326.796 464.202 324.504 460.105 324.504C456.253 324.504 452.881 326.537 450.984 329.584C452.798 332.957 456.358 335.252 460.456 335.252Z" fill="#CE3246"/>
<path d="M507.486 453.451C507.486 454.551 486.422 455.441 460.44 455.441C434.453 455.441 413.392 454.551 413.392 453.451C413.392 452.351 434.453 451.459 460.44 451.459C486.422 451.459 507.486 452.351 507.486 453.451Z" fill="#4E596F"/>
<path d="M110.061 229.764C108.739 229.764 107.536 229.51 106.451 229.001C105.383 228.493 104.46 227.806 103.68 226.942C102.917 226.061 102.324 225.078 101.9 223.993C101.477 222.892 101.265 221.765 101.265 220.612C101.265 219.409 101.485 218.265 101.926 217.18C102.383 216.079 103.002 215.104 103.782 214.257C104.578 213.392 105.51 212.714 106.578 212.223C107.663 211.715 108.849 211.46 110.137 211.46C111.442 211.46 112.628 211.723 113.696 212.248C114.781 212.774 115.704 213.477 116.467 214.358C117.23 215.24 117.823 216.223 118.247 217.307C118.67 218.392 118.882 219.511 118.882 220.663C118.882 221.849 118.662 222.993 118.221 224.095C117.781 225.18 117.162 226.154 116.365 227.018C115.586 227.866 114.654 228.535 113.569 229.027C112.501 229.518 111.332 229.764 110.061 229.764ZM104.824 220.612C104.824 221.392 104.943 222.146 105.18 222.875C105.417 223.603 105.756 224.256 106.197 224.832C106.654 225.391 107.205 225.841 107.849 226.179C108.51 226.501 109.256 226.662 110.086 226.662C110.934 226.662 111.688 226.493 112.349 226.154C113.01 225.798 113.561 225.332 114.001 224.756C114.442 224.163 114.772 223.51 114.993 222.798C115.23 222.07 115.349 221.341 115.349 220.612C115.349 219.833 115.221 219.087 114.967 218.375C114.73 217.646 114.382 217.002 113.925 216.443C113.484 215.867 112.933 215.418 112.272 215.096C111.628 214.757 110.9 214.587 110.086 214.587C109.222 214.587 108.459 214.765 107.798 215.121C107.154 215.46 106.612 215.918 106.171 216.494C105.731 217.07 105.392 217.714 105.154 218.426C104.934 219.138 104.824 219.866 104.824 220.612ZM127.395 229.891C126.31 229.891 125.336 229.713 124.471 229.357C123.607 228.984 122.87 228.476 122.26 227.832C121.666 227.188 121.209 226.451 120.887 225.62C120.565 224.79 120.404 223.917 120.404 223.002C120.404 222.07 120.565 221.188 120.887 220.358C121.209 219.527 121.666 218.79 122.26 218.146C122.87 217.502 123.607 217.002 124.471 216.646C125.336 216.273 126.31 216.087 127.395 216.087C128.48 216.087 129.446 216.273 130.293 216.646C131.157 217.002 131.894 217.502 132.505 218.146C133.115 218.79 133.572 219.527 133.877 220.358C134.199 221.188 134.36 222.07 134.36 223.002C134.36 223.917 134.199 224.79 133.877 225.62C133.572 226.451 133.115 227.188 132.505 227.832C131.911 228.476 131.183 228.984 130.318 229.357C129.454 229.713 128.48 229.891 127.395 229.891ZM123.912 223.002C123.912 223.781 124.065 224.476 124.37 225.086C124.675 225.68 125.09 226.146 125.615 226.485C126.141 226.824 126.734 226.993 127.395 226.993C128.039 226.993 128.624 226.824 129.149 226.485C129.674 226.129 130.09 225.654 130.395 225.061C130.717 224.451 130.878 223.756 130.878 222.976C130.878 222.214 130.717 221.527 130.395 220.917C130.09 220.307 129.674 219.833 129.149 219.494C128.624 219.155 128.039 218.985 127.395 218.985C126.734 218.985 126.141 219.163 125.615 219.519C125.09 219.858 124.675 220.332 124.37 220.943C124.065 221.536 123.912 222.222 123.912 223.002ZM144.642 229.891C143.608 229.891 142.693 229.662 141.897 229.205C141.117 228.73 140.507 228.095 140.066 227.298V235.052H136.66V216.316H139.634V218.604C140.142 217.824 140.786 217.214 141.566 216.773C142.346 216.316 143.235 216.087 144.235 216.087C145.134 216.087 145.956 216.265 146.701 216.621C147.464 216.977 148.125 217.477 148.684 218.121C149.243 218.748 149.676 219.477 149.981 220.307C150.303 221.121 150.464 222.002 150.464 222.951C150.464 224.239 150.209 225.408 149.701 226.459C149.21 227.51 148.523 228.349 147.642 228.976C146.778 229.586 145.778 229.891 144.642 229.891ZM143.498 226.993C144.024 226.993 144.498 226.883 144.922 226.662C145.345 226.442 145.71 226.146 146.015 225.773C146.337 225.383 146.574 224.951 146.727 224.476C146.896 223.985 146.981 223.476 146.981 222.951C146.981 222.392 146.888 221.875 146.701 221.4C146.532 220.926 146.278 220.51 145.939 220.155C145.6 219.782 145.201 219.494 144.744 219.29C144.303 219.087 143.82 218.985 143.295 218.985C142.973 218.985 142.642 219.044 142.303 219.163C141.981 219.265 141.668 219.417 141.363 219.621C141.058 219.824 140.786 220.061 140.549 220.332C140.329 220.604 140.168 220.9 140.066 221.222V224.349C140.27 224.841 140.541 225.29 140.88 225.696C141.236 226.103 141.642 226.425 142.1 226.662C142.558 226.883 143.024 226.993 143.498 226.993ZM157.678 229.891C156.543 229.891 155.458 229.705 154.424 229.332C153.39 228.959 152.501 228.408 151.755 227.679L152.975 225.468C153.772 226.112 154.551 226.586 155.314 226.891C156.093 227.196 156.839 227.349 157.551 227.349C158.212 227.349 158.737 227.23 159.127 226.993C159.534 226.756 159.737 226.4 159.737 225.925C159.737 225.603 159.627 225.358 159.407 225.188C159.186 225.002 158.864 224.841 158.441 224.705C158.034 224.569 157.534 224.417 156.941 224.247C155.958 223.925 155.136 223.612 154.475 223.307C153.814 223.002 153.314 222.62 152.975 222.163C152.653 221.688 152.492 221.087 152.492 220.358C152.492 219.477 152.712 218.722 153.153 218.095C153.611 217.451 154.238 216.951 155.034 216.595C155.848 216.24 156.797 216.062 157.881 216.062C158.831 216.062 159.729 216.214 160.576 216.519C161.424 216.807 162.195 217.282 162.89 217.943L161.517 220.104C160.839 219.578 160.195 219.197 159.585 218.96C158.975 218.705 158.356 218.578 157.729 218.578C157.373 218.578 157.034 218.621 156.712 218.705C156.407 218.79 156.153 218.934 155.949 219.138C155.763 219.324 155.67 219.595 155.67 219.951C155.67 220.273 155.755 220.527 155.924 220.714C156.11 220.883 156.382 221.036 156.737 221.171C157.11 221.307 157.559 221.46 158.085 221.629C159.153 221.934 160.051 222.248 160.78 222.57C161.525 222.892 162.085 223.29 162.457 223.764C162.83 224.222 163.017 224.858 163.017 225.671C163.017 226.993 162.534 228.027 161.568 228.773C160.602 229.518 159.305 229.891 157.678 229.891ZM165.257 229.637V225.976H168.054V229.637H165.257ZM170.967 229.637V225.976H173.764V229.637H170.967ZM176.677 229.637V225.976H179.474V229.637H176.677ZM187.37 229.891C186.234 229.891 185.15 229.705 184.116 229.332C183.082 228.959 182.192 228.408 181.447 227.679L182.667 225.468C183.463 226.112 184.243 226.586 185.006 226.891C185.785 227.196 186.531 227.349 187.243 227.349C187.904 227.349 188.429 227.23 188.819 226.993C189.226 226.756 189.429 226.4 189.429 225.925C189.429 225.603 189.319 225.358 189.099 225.188C188.878 225.002 188.556 224.841 188.133 224.705C187.726 224.569 187.226 224.417 186.633 224.247C185.65 223.925 184.828 223.612 184.167 223.307C183.506 223.002 183.006 222.62 182.667 222.163C182.345 221.688 182.184 221.087 182.184 220.358C182.184 219.477 182.404 218.722 182.845 218.095C183.302 217.451 183.929 216.951 184.726 216.595C185.54 216.24 186.489 216.062 187.573 216.062C188.522 216.062 189.421 216.214 190.268 216.519C191.115 216.807 191.886 217.282 192.581 217.943L191.209 220.104C190.531 219.578 189.887 219.197 189.277 218.96C188.666 218.705 188.048 218.578 187.421 218.578C187.065 218.578 186.726 218.621 186.404 218.705C186.099 218.79 185.845 218.934 185.641 219.138C185.455 219.324 185.362 219.595 185.362 219.951C185.362 220.273 185.446 220.527 185.616 220.714C185.802 220.883 186.073 221.036 186.429 221.171C186.802 221.307 187.251 221.46 187.777 221.629C188.844 221.934 189.743 222.248 190.471 222.57C191.217 222.892 191.776 223.29 192.149 223.764C192.522 224.222 192.708 224.858 192.708 225.671C192.708 226.993 192.225 228.027 191.259 228.773C190.293 229.518 188.997 229.891 187.37 229.891ZM201.177 229.891C200.093 229.891 199.118 229.713 198.254 229.357C197.39 228.984 196.652 228.476 196.042 227.832C195.449 227.188 194.991 226.451 194.669 225.62C194.347 224.79 194.186 223.917 194.186 223.002C194.186 222.07 194.347 221.188 194.669 220.358C194.991 219.527 195.449 218.79 196.042 218.146C196.652 217.502 197.39 217.002 198.254 216.646C199.118 216.273 200.093 216.087 201.177 216.087C202.262 216.087 203.228 216.273 204.076 216.646C204.94 217.002 205.677 217.502 206.287 218.146C206.897 218.79 207.355 219.527 207.66 220.358C207.982 221.188 208.143 222.07 208.143 223.002C208.143 223.917 207.982 224.79 207.66 225.62C207.355 226.451 206.897 227.188 206.287 227.832C205.694 228.476 204.965 228.984 204.101 229.357C203.237 229.713 202.262 229.891 201.177 229.891ZM197.695 223.002C197.695 223.781 197.847 224.476 198.152 225.086C198.457 225.68 198.873 226.146 199.398 226.485C199.923 226.824 200.516 226.993 201.177 226.993C201.821 226.993 202.406 226.824 202.932 226.485C203.457 226.129 203.872 225.654 204.177 225.061C204.499 224.451 204.66 223.756 204.66 222.976C204.66 222.214 204.499 221.527 204.177 220.917C203.872 220.307 203.457 219.833 202.932 219.494C202.406 219.155 201.821 218.985 201.177 218.985C200.516 218.985 199.923 219.163 199.398 219.519C198.873 219.858 198.457 220.332 198.152 220.943C197.847 221.536 197.695 222.222 197.695 223.002ZM218.374 219.265C217.34 219.265 216.416 219.468 215.603 219.875C214.789 220.265 214.205 220.832 213.849 221.578V229.637H210.442V216.316H213.569V219.163C214.044 218.248 214.645 217.528 215.374 217.002C216.103 216.477 216.874 216.189 217.687 216.138C217.874 216.138 218.018 216.138 218.12 216.138C218.221 216.138 218.306 216.146 218.374 216.163V219.265ZM228.205 219.265C227.171 219.265 226.247 219.468 225.434 219.875C224.62 220.265 224.036 220.832 223.68 221.578V229.637H220.273V216.316H223.4V219.163C223.875 218.248 224.476 217.528 225.205 217.002C225.934 216.477 226.705 216.189 227.519 216.138C227.705 216.138 227.849 216.138 227.951 216.138C228.052 216.138 228.137 216.146 228.205 216.163V219.265ZM230.384 232.23C230.689 232.298 230.969 232.357 231.223 232.408C231.494 232.459 231.723 232.484 231.909 232.484C232.231 232.484 232.494 232.399 232.697 232.23C232.918 232.077 233.13 231.789 233.333 231.366C233.536 230.959 233.748 230.383 233.969 229.637L228.706 216.316H232.24L235.824 226.154L238.977 216.316H242.231L236.638 232.281C236.434 232.874 236.121 233.408 235.697 233.882C235.29 234.374 234.774 234.755 234.146 235.026C233.536 235.314 232.85 235.458 232.087 235.458C231.816 235.458 231.545 235.433 231.274 235.382C231.003 235.348 230.706 235.28 230.384 235.179V232.23ZM257.526 229.891C256.492 229.891 255.577 229.662 254.78 229.205C254 228.73 253.39 228.095 252.95 227.298V235.052H249.543V216.316H252.517V218.604C253.026 217.824 253.67 217.214 254.449 216.773C255.229 216.316 256.119 216.087 257.119 216.087C258.017 216.087 258.839 216.265 259.585 216.621C260.347 216.977 261.008 217.477 261.568 218.121C262.127 218.748 262.559 219.477 262.864 220.307C263.186 221.121 263.347 222.002 263.347 222.951C263.347 224.239 263.093 225.408 262.584 226.459C262.093 227.51 261.407 228.349 260.525 228.976C259.661 229.586 258.661 229.891 257.526 229.891ZM256.382 226.993C256.907 226.993 257.381 226.883 257.805 226.662C258.229 226.442 258.593 226.146 258.898 225.773C259.22 225.383 259.458 224.951 259.61 224.476C259.78 223.985 259.864 223.476 259.864 222.951C259.864 222.392 259.771 221.875 259.585 221.4C259.415 220.926 259.161 220.51 258.822 220.155C258.483 219.782 258.085 219.494 257.627 219.29C257.187 219.087 256.704 218.985 256.178 218.985C255.856 218.985 255.526 219.044 255.187 219.163C254.865 219.265 254.551 219.417 254.246 219.621C253.941 219.824 253.67 220.061 253.433 220.332C253.212 220.604 253.051 220.9 252.95 221.222V224.349C253.153 224.841 253.424 225.29 253.763 225.696C254.119 226.103 254.526 226.425 254.983 226.662C255.441 226.883 255.907 226.993 256.382 226.993ZM264.74 225.696C264.74 224.832 264.977 224.078 265.452 223.434C265.943 222.773 266.621 222.265 267.485 221.909C268.35 221.553 269.341 221.375 270.46 221.375C271.019 221.375 271.587 221.417 272.163 221.502C272.739 221.587 273.239 221.722 273.663 221.909V221.197C273.663 220.349 273.409 219.697 272.9 219.239C272.409 218.782 271.672 218.553 270.689 218.553C269.96 218.553 269.265 218.68 268.604 218.934C267.943 219.189 267.248 219.561 266.519 220.053L265.426 217.816C266.308 217.24 267.206 216.807 268.121 216.519C269.053 216.231 270.028 216.087 271.045 216.087C272.943 216.087 274.417 216.562 275.468 217.511C276.536 218.46 277.069 219.816 277.069 221.578V225.824C277.069 226.179 277.129 226.434 277.247 226.586C277.383 226.739 277.595 226.832 277.883 226.866V229.637C277.578 229.688 277.298 229.73 277.044 229.764C276.807 229.798 276.603 229.815 276.434 229.815C275.756 229.815 275.239 229.662 274.883 229.357C274.544 229.052 274.332 228.679 274.248 228.239L274.171 227.552C273.595 228.298 272.875 228.874 272.011 229.281C271.146 229.688 270.265 229.891 269.367 229.891C268.485 229.891 267.689 229.713 266.977 229.357C266.282 228.984 265.731 228.484 265.325 227.857C264.935 227.213 264.74 226.493 264.74 225.696ZM273.027 226.383C273.214 226.179 273.366 225.976 273.485 225.773C273.604 225.569 273.663 225.383 273.663 225.213V223.866C273.256 223.697 272.816 223.57 272.341 223.485C271.866 223.383 271.417 223.332 270.994 223.332C270.112 223.332 269.384 223.527 268.807 223.917C268.248 224.29 267.968 224.79 267.968 225.417C267.968 225.756 268.062 226.078 268.248 226.383C268.435 226.688 268.706 226.934 269.062 227.12C269.418 227.307 269.841 227.4 270.333 227.4C270.841 227.4 271.341 227.307 271.833 227.12C272.324 226.917 272.722 226.671 273.027 226.383ZM285.464 229.713C284.583 229.713 283.769 229.544 283.024 229.205C282.295 228.849 281.659 228.357 281.117 227.73C280.592 227.103 280.185 226.383 279.897 225.569C279.609 224.756 279.465 223.892 279.465 222.976C279.465 222.01 279.617 221.112 279.922 220.282C280.227 219.451 280.651 218.722 281.193 218.095C281.753 217.451 282.405 216.96 283.151 216.621C283.913 216.265 284.752 216.087 285.668 216.087C286.701 216.087 287.608 216.324 288.388 216.799C289.167 217.256 289.811 217.875 290.32 218.655V216.316H293.294V229.001C293.294 230.323 292.972 231.45 292.328 232.382C291.701 233.331 290.828 234.052 289.71 234.543C288.591 235.052 287.32 235.306 285.896 235.306C284.456 235.306 283.236 235.06 282.236 234.569C281.236 234.094 280.38 233.416 279.668 232.535L281.524 230.73C282.032 231.357 282.668 231.849 283.43 232.204C284.21 232.56 285.032 232.738 285.896 232.738C286.625 232.738 287.286 232.603 287.879 232.332C288.489 232.077 288.972 231.671 289.328 231.111C289.701 230.569 289.888 229.866 289.888 229.001V227.323C289.447 228.086 288.82 228.679 288.006 229.103C287.21 229.51 286.362 229.713 285.464 229.713ZM286.608 226.993C286.981 226.993 287.337 226.934 287.676 226.815C288.015 226.696 288.328 226.535 288.616 226.332C288.905 226.129 289.159 225.891 289.379 225.62C289.599 225.332 289.769 225.044 289.888 224.756V221.578C289.684 221.053 289.396 220.595 289.023 220.205C288.667 219.816 288.261 219.519 287.803 219.316C287.362 219.095 286.896 218.985 286.405 218.985C285.879 218.985 285.405 219.095 284.981 219.316C284.557 219.536 284.193 219.849 283.888 220.256C283.583 220.646 283.346 221.087 283.176 221.578C283.024 222.053 282.947 222.553 282.947 223.078C282.947 223.62 283.041 224.129 283.227 224.603C283.414 225.078 283.668 225.493 283.99 225.849C284.329 226.205 284.718 226.485 285.159 226.688C285.617 226.891 286.1 226.993 286.608 226.993ZM302.542 229.891C301.475 229.891 300.508 229.713 299.644 229.357C298.78 228.984 298.043 228.484 297.432 227.857C296.822 227.213 296.348 226.485 296.009 225.671C295.687 224.841 295.526 223.968 295.526 223.053C295.526 221.782 295.805 220.621 296.365 219.57C296.941 218.519 297.754 217.68 298.805 217.053C299.873 216.409 301.127 216.087 302.568 216.087C304.025 216.087 305.271 216.409 306.305 217.053C307.338 217.68 308.127 218.519 308.669 219.57C309.228 220.604 309.508 221.722 309.508 222.926C309.508 223.129 309.499 223.341 309.482 223.561C309.465 223.764 309.448 223.934 309.432 224.069H299.136C299.204 224.747 299.398 225.341 299.72 225.849C300.059 226.357 300.483 226.747 300.992 227.018C301.517 227.273 302.076 227.4 302.669 227.4C303.347 227.4 303.983 227.239 304.576 226.917C305.186 226.578 305.601 226.137 305.822 225.595L308.745 226.408C308.423 227.086 307.957 227.688 307.347 228.213C306.754 228.739 306.05 229.154 305.237 229.459C304.423 229.747 303.525 229.891 302.542 229.891ZM299.059 221.909H306.025C305.957 221.231 305.762 220.646 305.44 220.155C305.135 219.646 304.729 219.256 304.22 218.985C303.712 218.697 303.144 218.553 302.517 218.553C301.907 218.553 301.347 218.697 300.839 218.985C300.347 219.256 299.941 219.646 299.619 220.155C299.314 220.646 299.127 221.231 299.059 221.909ZM330.071 229.637H326.664V222.163C326.664 221.095 326.478 220.316 326.105 219.824C325.732 219.333 325.215 219.087 324.554 219.087C324.096 219.087 323.63 219.205 323.156 219.443C322.698 219.68 322.283 220.01 321.91 220.434C321.537 220.841 321.266 221.315 321.097 221.858V229.637H317.69V216.316H320.766V218.782C321.105 218.206 321.537 217.723 322.063 217.333C322.588 216.926 323.19 216.621 323.868 216.418C324.563 216.197 325.291 216.087 326.054 216.087C326.884 216.087 327.562 216.24 328.088 216.545C328.63 216.833 329.037 217.231 329.308 217.739C329.596 218.231 329.791 218.79 329.893 219.417C330.011 220.044 330.071 220.68 330.071 221.324V229.637ZM339.185 229.891C338.1 229.891 337.126 229.713 336.261 229.357C335.397 228.984 334.66 228.476 334.049 227.832C333.456 227.188 332.999 226.451 332.677 225.62C332.355 224.79 332.194 223.917 332.194 223.002C332.194 222.07 332.355 221.188 332.677 220.358C332.999 219.527 333.456 218.79 334.049 218.146C334.66 217.502 335.397 217.002 336.261 216.646C337.126 216.273 338.1 216.087 339.185 216.087C340.269 216.087 341.235 216.273 342.083 216.646C342.947 217.002 343.684 217.502 344.294 218.146C344.905 218.79 345.362 219.527 345.667 220.358C345.989 221.188 346.15 222.07 346.15 223.002C346.15 223.917 345.989 224.79 345.667 225.62C345.362 226.451 344.905 227.188 344.294 227.832C343.701 228.476 342.973 228.984 342.108 229.357C341.244 229.713 340.269 229.891 339.185 229.891ZM335.702 223.002C335.702 223.781 335.854 224.476 336.16 225.086C336.465 225.68 336.88 226.146 337.405 226.485C337.931 226.824 338.524 226.993 339.185 226.993C339.829 226.993 340.413 226.824 340.939 226.485C341.464 226.129 341.879 225.654 342.184 225.061C342.506 224.451 342.667 223.756 342.667 222.976C342.667 222.214 342.506 221.527 342.184 220.917C341.879 220.307 341.464 219.833 340.939 219.494C340.413 219.155 339.829 218.985 339.185 218.985C338.524 218.985 337.931 219.163 337.405 219.519C336.88 219.858 336.465 220.332 336.16 220.943C335.854 221.536 335.702 222.222 335.702 223.002ZM356.233 228.95C355.945 229.069 355.598 229.205 355.191 229.357C354.784 229.51 354.344 229.628 353.869 229.713C353.412 229.815 352.945 229.866 352.471 229.866C351.844 229.866 351.268 229.755 350.742 229.535C350.217 229.315 349.793 228.967 349.471 228.493C349.166 228.001 349.014 227.366 349.014 226.586V218.934H347.259V216.316H349.014V211.994H352.42V216.316H355.216V218.934H352.42V225.442C352.437 225.9 352.564 226.23 352.801 226.434C353.039 226.637 353.335 226.739 353.691 226.739C354.047 226.739 354.394 226.679 354.733 226.561C355.072 226.442 355.344 226.34 355.547 226.256L356.233 228.95ZM364.928 229.637V219.621H363.174V217.028H364.928V216.214C364.928 215.113 365.106 214.163 365.462 213.367C365.835 212.553 366.352 211.926 367.013 211.486C367.691 211.045 368.479 210.825 369.377 210.825C369.919 210.825 370.462 210.893 371.004 211.028C371.563 211.164 372.114 211.359 372.656 211.613L371.97 214.18C371.716 214.045 371.419 213.935 371.08 213.85C370.741 213.748 370.419 213.697 370.114 213.697C369.538 213.697 369.097 213.901 368.792 214.308C368.487 214.714 368.335 215.307 368.335 216.087V217.028H371.589V219.621H368.335V229.637H364.928ZM379.502 229.891C378.417 229.891 377.443 229.713 376.578 229.357C375.714 228.984 374.977 228.476 374.367 227.832C373.774 227.188 373.316 226.451 372.994 225.62C372.672 224.79 372.511 223.917 372.511 223.002C372.511 222.07 372.672 221.188 372.994 220.358C373.316 219.527 373.774 218.79 374.367 218.146C374.977 217.502 375.714 217.002 376.578 216.646C377.443 216.273 378.417 216.087 379.502 216.087C380.587 216.087 381.553 216.273 382.4 216.646C383.264 217.002 384.002 217.502 384.612 218.146C385.222 218.79 385.679 219.527 385.984 220.358C386.306 221.188 386.468 222.07 386.468 223.002C386.468 223.917 386.306 224.79 385.984 225.62C385.679 226.451 385.222 227.188 384.612 227.832C384.019 228.476 383.29 228.984 382.425 229.357C381.561 229.713 380.587 229.891 379.502 229.891ZM376.019 223.002C376.019 223.781 376.172 224.476 376.477 225.086C376.782 225.68 377.197 226.146 377.722 226.485C378.248 226.824 378.841 226.993 379.502 226.993C380.146 226.993 380.731 226.824 381.256 226.485C381.781 226.129 382.197 225.654 382.502 225.061C382.824 224.451 382.985 223.756 382.985 222.976C382.985 222.214 382.824 221.527 382.502 220.917C382.197 220.307 381.781 219.833 381.256 219.494C380.731 219.155 380.146 218.985 379.502 218.985C378.841 218.985 378.248 219.163 377.722 219.519C377.197 219.858 376.782 220.332 376.477 220.943C376.172 221.536 376.019 222.222 376.019 223.002ZM388.64 224.654V216.316H392.046V223.917C392.046 224.934 392.233 225.705 392.605 226.23C392.978 226.739 393.529 226.993 394.258 226.993C394.699 226.993 395.131 226.908 395.554 226.739C395.995 226.552 396.393 226.281 396.749 225.925C397.122 225.569 397.436 225.12 397.69 224.578V216.316H401.096V225.824C401.096 226.179 401.156 226.434 401.274 226.586C401.41 226.739 401.622 226.832 401.91 226.866V229.637C401.571 229.688 401.283 229.722 401.045 229.739C400.825 229.772 400.622 229.789 400.435 229.789C399.825 229.789 399.325 229.654 398.935 229.383C398.563 229.095 398.342 228.705 398.275 228.213L398.198 227.146C397.605 228.044 396.842 228.73 395.91 229.205C394.978 229.662 393.953 229.891 392.834 229.891C391.461 229.891 390.419 229.45 389.707 228.569C388.996 227.671 388.64 226.366 388.64 224.654ZM416.862 229.637H413.455V222.163C413.455 221.095 413.269 220.316 412.896 219.824C412.523 219.333 412.006 219.087 411.345 219.087C410.888 219.087 410.422 219.205 409.947 219.443C409.49 219.68 409.074 220.01 408.702 220.434C408.329 220.841 408.058 221.315 407.888 221.858V229.637H404.482V216.316H407.558V218.782C407.897 218.206 408.329 217.723 408.854 217.333C409.38 216.926 409.981 216.621 410.659 216.418C411.354 216.197 412.083 216.087 412.845 216.087C413.676 216.087 414.354 216.24 414.879 216.545C415.421 216.833 415.828 217.231 416.099 217.739C416.387 218.231 416.582 218.79 416.684 219.417C416.803 220.044 416.862 220.68 416.862 221.324V229.637ZM419.011 222.976C419.011 221.688 419.265 220.527 419.773 219.494C420.282 218.443 420.985 217.612 421.883 217.002C422.781 216.392 423.807 216.087 424.959 216.087C425.942 216.087 426.823 216.333 427.603 216.824C428.4 217.299 429.018 217.909 429.459 218.655V211.079H432.865V225.824C432.865 226.179 432.925 226.434 433.043 226.586C433.162 226.739 433.365 226.832 433.653 226.866V229.637C433.06 229.755 432.577 229.815 432.204 229.815C431.594 229.815 431.086 229.662 430.679 229.357C430.289 229.052 430.069 228.654 430.018 228.162L429.967 227.323C429.476 228.154 428.806 228.789 427.959 229.23C427.129 229.671 426.256 229.891 425.341 229.891C424.425 229.891 423.578 229.713 422.798 229.357C422.036 229.001 421.366 228.51 420.79 227.883C420.231 227.256 419.79 226.527 419.468 225.696C419.163 224.849 419.011 223.942 419.011 222.976ZM429.459 224.756V221.578C429.289 221.087 429.018 220.646 428.645 220.256C428.272 219.866 427.857 219.561 427.4 219.341C426.942 219.104 426.485 218.985 426.027 218.985C425.502 218.985 425.027 219.095 424.603 219.316C424.18 219.536 423.807 219.833 423.485 220.205C423.18 220.578 422.942 221.01 422.773 221.502C422.62 221.993 422.544 222.51 422.544 223.053C422.544 223.595 422.629 224.112 422.798 224.603C422.985 225.078 423.247 225.493 423.586 225.849C423.925 226.205 424.315 226.485 424.756 226.688C425.213 226.891 425.705 226.993 426.23 226.993C426.552 226.993 426.874 226.942 427.196 226.84C427.535 226.722 427.849 226.569 428.137 226.383C428.442 226.179 428.705 225.942 428.925 225.671C429.162 225.383 429.34 225.078 429.459 224.756ZM436.87 222.849V211.409H440.277V222.849H436.87ZM436.87 229.637V225.798H440.277V229.637H436.87Z" fill="white"/>
<path d="M49.9512 357.611C48.8602 357.783 47.8357 357.039 47.6629 355.948L46.051 345.771C45.8782 344.68 44.8537 343.936 43.7628 344.109L20.0266 347.868C18.9357 348.041 17.9112 347.296 17.7384 346.205L16.3716 337.576C16.302 337.136 16.3811 336.686 16.5965 336.296L41.098 291.95C41.3962 291.41 41.9267 291.038 42.5357 290.942L48.2237 290.041C49.3146 289.868 50.3391 290.613 50.5119 291.704L56.3288 328.43C56.5016 329.521 57.5261 330.265 58.617 330.092L63.0103 329.396C64.1012 329.224 65.1257 329.968 65.2985 331.059L66.4749 338.486C66.6477 339.577 65.9034 340.602 64.8124 340.775L60.4192 341.47C59.3282 341.643 58.5838 342.668 58.7566 343.759L60.3685 353.936C60.5413 355.027 59.797 356.051 58.706 356.224L49.9512 357.611ZM30.883 331.229C30.0939 332.686 31.3178 334.416 32.9546 334.157L43.3829 332.505C44.4739 332.332 45.2182 331.308 45.0454 330.217L42.8877 316.594C42.5886 314.705 40.064 314.273 39.1536 315.954L30.883 331.229Z" fill="white"/>
<path d="M119.826 305.721C120.707 311.284 120.418 316.416 118.96 321.118C117.555 325.747 115.183 329.589 111.843 332.645C108.568 335.691 104.591 337.585 99.9132 338.325C95.2355 339.066 90.8366 338.499 86.7167 336.625C82.6599 334.74 79.2165 331.819 76.3865 327.861C73.6097 323.83 71.7808 319.033 70.8997 313.47C70.0187 307.907 70.2808 302.812 71.686 298.183C73.1444 293.481 75.5115 289.607 78.7873 286.561C82.1163 283.442 86.1197 281.512 90.7974 280.771C95.4751 280.03 99.8473 280.633 103.914 282.581C108.034 284.456 111.482 287.409 114.259 291.44C117.089 295.398 118.945 300.158 119.826 305.721ZM107.025 307.748C106.485 304.335 105.509 301.444 104.097 299.076C102.738 296.634 101.059 294.827 99.0583 293.653C97.0581 292.48 94.9202 292.073 92.6446 292.434C90.3057 292.804 88.3665 293.856 86.8268 295.59C85.2872 297.325 84.2169 299.568 83.616 302.32C83.0683 304.998 83.0647 308.044 83.6053 311.458C84.146 314.871 85.0906 317.767 86.4393 320.145C87.8512 322.514 89.5572 324.285 91.5574 325.458C93.5576 326.632 95.7271 327.033 98.066 326.663C100.342 326.302 102.218 325.26 103.694 323.536C105.234 321.802 106.309 319.59 106.92 316.902C107.521 314.15 107.556 311.099 107.025 307.748Z" fill="white"/>
<path d="M162.362 339.806C161.271 339.979 160.247 339.235 160.074 338.144L158.462 327.967C158.29 326.876 157.265 326.132 156.174 326.304L132.438 330.064C131.347 330.237 130.322 329.492 130.15 328.401L128.783 319.772C128.713 319.332 128.792 318.882 129.008 318.492L153.509 274.146C153.808 273.606 154.338 273.234 154.947 273.138L160.635 272.237C161.726 272.064 162.75 272.808 162.923 273.899L168.74 310.626C168.913 311.717 169.937 312.461 171.028 312.288L175.422 311.592C176.513 311.419 177.537 312.164 177.71 313.255L178.886 320.682C179.059 321.773 178.315 322.798 177.224 322.97L172.83 323.666C171.739 323.839 170.995 324.863 171.168 325.954L172.78 336.132C172.953 337.223 172.208 338.247 171.117 338.42L162.362 339.806ZM143.294 313.425C142.505 314.882 143.729 316.612 145.366 316.353L155.794 314.701C156.885 314.528 157.63 313.504 157.457 312.413L155.299 298.79C155 296.901 152.475 296.469 151.565 298.15L143.294 313.425Z" fill="white"/>
<path d="M122.332 393.137C122.332 393.137 115.966 389.713 114.908 393.137C113.849 396.561 116.374 402.917 123.938 402.564C131.502 402.211 122.332 393.137 122.332 393.137Z" fill="white"/>
<path d="M217.264 329.693C216.274 327.21 213.37 326.788 210.777 328.746C208.184 330.706 206.882 334.306 207.872 336.788C208.86 339.27 211.764 339.693 214.357 337.734C216.95 335.774 218.252 332.174 217.264 329.693Z" fill="#DFDFDC"/>
<path d="M245.614 307.313C243.672 304.419 236.634 305.671 229.898 310.111C223.161 314.549 219.276 320.495 221.218 323.389C223.161 326.283 230.198 325.031 236.936 320.592C243.672 316.153 247.558 310.208 245.614 307.313Z" fill="#DFDFDC"/>
<path d="M436.918 280.815C436.348 279.38 434.67 279.136 433.172 280.268C431.673 281.4 430.921 283.48 431.492 284.913C432.064 286.348 433.741 286.592 435.24 285.46C436.738 284.328 437.49 282.248 436.918 280.815Z" fill="#DFDFDC"/>
<path d="M453.301 267.884C452.177 266.211 448.112 266.935 444.22 269.499C440.326 272.064 438.081 275.499 439.203 277.172C440.327 278.844 444.393 278.12 448.285 275.556C452.178 272.991 454.423 269.556 453.301 267.884Z" fill="#DFDFDC"/>
<path d="M286.87 415.595C285.5 415.595 284.208 414.756 283.697 413.396C280.914 405.999 274.568 403.364 269.554 403.364H269.549C264.545 403.367 258.21 406.001 255.437 413.393C254.778 415.148 252.824 416.035 251.072 415.377C249.317 414.719 248.429 412.764 249.086 411.011C252.425 402.115 260.265 396.585 269.545 396.583H269.556C278.846 396.583 286.696 402.109 290.044 411.008C290.704 412.761 289.817 414.716 288.064 415.376C287.672 415.524 287.268 415.595 286.87 415.595Z" fill="#211D1D"/>
<path d="M229.85 390.756C230.373 390.768 230.9 390.58 231.306 390.189L236.456 385.244C237.266 384.465 237.293 383.176 236.513 382.365C235.736 381.555 234.446 381.528 233.636 382.307L228.485 387.252C227.674 388.031 227.649 389.32 228.428 390.131C228.816 390.535 229.332 390.745 229.85 390.756Z" fill="#FADDE0"/>
<path d="M219.597 391.101C220.12 391.112 220.646 390.924 221.053 390.533L226.202 385.589C227.013 384.811 227.04 383.521 226.26 382.711C225.481 381.9 224.192 381.872 223.381 382.652L218.232 387.597C217.421 388.376 217.394 389.665 218.174 390.476C218.562 390.88 219.078 391.089 219.597 391.101Z" fill="#FADDE0"/>
<path d="M209.343 391.447C209.866 391.457 210.393 391.269 210.798 390.879L215.947 385.933C216.759 385.156 216.785 383.865 216.006 383.055C215.227 382.244 213.938 382.217 213.127 382.997L207.978 387.943C207.167 388.72 207.141 390.009 207.921 390.82C208.309 391.225 208.825 391.435 209.343 391.447Z" fill="#FADDE0"/>
<path d="M232.609 365.095C232.482 370.835 227.728 375.385 221.988 375.259C216.249 375.132 211.698 370.377 211.825 364.637C211.952 358.899 216.706 354.348 222.446 354.475C228.185 354.601 232.736 359.356 232.609 365.095Z" fill="#211D1D"/>
<path d="M308.527 390.756C308.006 390.768 307.479 390.58 307.073 390.189L301.923 385.244C301.113 384.465 301.086 383.176 301.866 382.365C302.643 381.555 303.933 381.528 304.743 382.307L309.893 387.252C310.705 388.031 310.73 389.32 309.951 390.131C309.563 390.535 309.047 390.745 308.527 390.756Z" fill="#FADDE0"/>
<path d="M318.782 391.101C318.26 391.112 317.733 390.924 317.326 390.533L312.177 385.589C311.366 384.811 311.34 383.521 312.12 382.711C312.898 381.9 314.188 381.872 314.998 382.652L320.148 387.597C320.958 388.376 320.985 389.665 320.205 390.476C319.817 390.88 319.301 391.089 318.782 391.101Z" fill="#FADDE0"/>
<path d="M329.036 391.447C328.513 391.457 327.986 391.269 327.58 390.879L322.43 385.933C321.62 385.156 321.594 383.865 322.373 383.055C323.152 382.244 324.441 382.217 325.252 382.997L330.401 387.943C331.212 388.72 331.238 390.009 330.458 390.82C330.07 391.225 329.554 391.435 329.036 391.447Z" fill="#FADDE0"/>
<path d="M305.77 365.095C305.897 370.835 310.651 375.385 316.391 375.259C322.13 375.132 326.681 370.377 326.554 364.637C326.428 358.899 321.673 354.348 315.933 354.475C310.194 354.601 305.643 359.356 305.77 365.095Z" fill="#211D1D"/>
<path d="M327.567 327.629C326.409 325.287 324.562 323.317 322.575 321.549C319.899 319.168 316.853 316.948 313.639 315.193C313.185 314.945 312.666 315.372 312.855 315.836C313.602 317.671 313.841 319.697 313.861 321.684C313.887 324.199 313.587 326.715 313.657 329.228C313.727 331.741 314.199 334.316 315.625 336.423C317.05 338.528 319.578 340.08 322.225 339.895C324.958 339.705 327.337 337.656 328.241 335.195C329.143 332.733 328.727 329.971 327.567 327.629Z" fill="#56AFDC"/>
<path d="M327.029 331.555C326.42 330.576 325.225 330.739 324.361 331.92C323.498 333.1 323.293 334.85 323.902 335.829C324.513 336.808 325.708 336.644 326.57 335.464C327.434 334.284 327.64 332.533 327.029 331.555Z" fill="#97DDF0"/>
<path d="M494.07 302.915C494.07 306.463 491.194 309.339 487.646 309.339C484.097 309.339 481.221 306.463 481.221 302.915C481.221 299.367 484.097 296.491 487.646 296.491C491.194 296.491 494.07 299.367 494.07 302.915Z" fill="#211D1D"/>
<path d="M439.657 302.915C439.657 306.463 436.781 309.339 433.233 309.339C429.684 309.339 426.808 306.463 426.808 302.915C426.808 299.367 429.684 296.491 433.233 296.491C436.781 296.491 439.657 299.367 439.657 302.915Z" fill="#211D1D"/>
<path d="M153.424 173.136C151.438 173.136 149.522 173.436 147.716 173.982C145.37 157.668 131.34 145.125 114.376 145.125C99.833 145.125 87.4424 154.34 82.7236 167.249C79.5537 165.689 75.9881 164.81 72.2162 164.81C62.737 164.81 54.5485 170.342 50.7048 178.354C47.1981 175.124 42.5298 173.136 37.3861 173.136C26.5142 173.136 17.7012 181.949 17.7012 192.82H173.109C173.109 181.949 164.296 173.136 153.424 173.136Z" fill="url(#paint6_linear_39_11973)"/>
<path d="M504.934 265.783L505.806 264.995C506.786 264.108 508.3 264.184 509.186 265.165C510.072 266.145 509.996 267.659 509.014 268.544L508.142 269.333C507.162 270.219 505.649 270.143 504.764 269.161C503.877 268.181 503.953 266.668 504.934 265.783ZM513.101 258.401L524.529 248.073C525.51 247.187 527.022 247.263 527.909 248.244C528.796 249.224 528.718 250.737 527.738 251.623L516.31 261.952C515.329 262.837 513.816 262.761 512.93 261.781C512.044 260.8 512.121 259.288 513.101 258.401Z" fill="white"/>
<path d="M498.989 259.666L499.706 258.832C500.513 257.894 501.928 257.788 502.866 258.594C503.804 259.401 503.91 260.816 503.104 261.755L502.385 262.589C501.578 263.526 500.165 263.633 499.226 262.826C498.289 262.02 498.182 260.605 498.989 259.666ZM505.709 251.853L515.114 240.92C515.921 239.981 517.336 239.876 518.273 240.683C519.212 241.489 519.317 242.904 518.51 243.841L509.106 254.776C508.3 255.713 506.885 255.82 505.946 255.013C505.009 254.207 504.902 252.792 505.709 251.853Z" fill="white"/>
<path d="M511.098 272.453L512.023 271.857C513.065 271.188 514.45 271.488 515.121 272.529C515.79 273.569 515.489 274.956 514.449 275.625L513.523 276.221C512.483 276.891 511.097 276.589 510.428 275.549C509.758 274.509 510.058 273.123 511.098 272.453ZM519.765 266.875L531.892 259.069C532.932 258.4 534.318 258.7 534.987 259.741C535.658 260.781 535.357 262.168 534.317 262.837L522.19 270.643C521.149 271.312 519.763 271.012 519.093 269.972C518.423 268.931 518.725 267.545 519.765 266.875Z" fill="white"/>
<path d="M283.436 632.441L283.434 632.427L283.436 632.441Z" fill="#152640"/>
<path d="M283.545 633.132H283.546C283.505 632.934 283.473 632.74 283.448 632.546C283.473 632.741 283.505 632.937 283.545 633.132Z" fill="#152640"/>
<path d="M284.26 635.137L284.245 635.109L284.26 635.137Z" fill="#152640"/>
<path d="M284.192 635.004L284.137 634.892L284.192 635.004Z" fill="#152640"/>
<path d="M283.745 633.904C283.852 634.237 283.978 634.561 284.126 634.869C283.976 634.555 283.852 634.231 283.749 633.904H283.745Z" fill="#152640"/>
<defs>
<filter id="filter0_d_39_11973" x="328.089" y="0.241211" width="153.64" height="185.195" filterUnits="userSpaceOnUse" color-interpolation-filters="sRGB">
<feFlood flood-opacity="0" result="BackgroundImageFix"/>
<feColorMatrix in="SourceAlpha" type="matrix" values="0 0 0 0 0 0 0 0 0 0 0 0 0 0 0 0 0 0 127 0" result="hardAlpha"/>
<feOffset dy="4"/>
<feGaussianBlur stdDeviation="25"/>
<feComposite in2="hardAlpha" operator="out"/>
<feColorMatrix type="matrix" values="0 0 0 0 1 0 0 0 0 1 0 0 0 0 1 0 0 0 0.5 0"/>
<feBlend mode="normal" in2="BackgroundImageFix" result="effect1_dropShadow_39_11973"/>
<feBlend mode="normal" in="SourceGraphic" in2="effect1_dropShadow_39_11973" result="shape"/>
</filter>
<filter id="filter1_d_39_11973" x="332.076" y="78.6665" width="30.5747" height="30.0547" filterUnits="userSpaceOnUse" color-interpolation-filters="sRGB">
<feFlood flood-opacity="0" result="BackgroundImageFix"/>
<feColorMatrix in="SourceAlpha" type="matrix" values="0 0 0 0 0 0 0 0 0 0 0 0 0 0 0 0 0 0 127 0" result="hardAlpha"/>
<feOffset/>
<feGaussianBlur stdDeviation="5"/>
<feComposite in2="hardAlpha" operator="out"/>
<feColorMatrix type="matrix" values="0 0 0 0 0.972549 0 0 0 0 0.878431 0 0 0 0 0.0196078 0 0 0 0.5 0"/>
<feBlend mode="normal" in2="BackgroundImageFix" result="effect1_dropShadow_39_11973"/>
<feBlend mode="normal" in="SourceGraphic" in2="effect1_dropShadow_39_11973" result="shape"/>
</filter>
<filter id="filter2_d_39_11973" x="212.941" y="99.6145" width="30.5732" height="30.0547" filterUnits="userSpaceOnUse" color-interpolation-filters="sRGB">
<feFlood flood-opacity="0" result="BackgroundImageFix"/>
<feColorMatrix in="SourceAlpha" type="matrix" values="0 0 0 0 0 0 0 0 0 0 0 0 0 0 0 0 0 0 127 0" result="hardAlpha"/>
<feOffset/>
<feGaussianBlur stdDeviation="5"/>
<feComposite in2="hardAlpha" operator="out"/>
<feColorMatrix type="matrix" values="0 0 0 0 0.972549 0 0 0 0 0.878431 0 0 0 0 0.0196078 0 0 0 0.5 0"/>
<feBlend mode="normal" in2="BackgroundImageFix" result="effect1_dropShadow_39_11973"/>
<feBlend mode="normal" in="SourceGraphic" in2="effect1_dropShadow_39_11973" result="shape"/>
</filter>
<filter id="filter3_d_39_11973" x="122.944" y="116.408" width="30.5732" height="30.056" filterUnits="userSpaceOnUse" color-interpolation-filters="sRGB">
<feFlood flood-opacity="0" result="BackgroundImageFix"/>
<feColorMatrix in="SourceAlpha" type="matrix" values="0 0 0 0 0 0 0 0 0 0 0 0 0 0 0 0 0 0 127 0" result="hardAlpha"/>
<feOffset/>
<feGaussianBlur stdDeviation="5"/>
<feComposite in2="hardAlpha" operator="out"/>
<feColorMatrix type="matrix" values="0 0 0 0 0.972549 0 0 0 0 0.878431 0 0 0 0 0.0196078 0 0 0 0.5 0"/>
<feBlend mode="normal" in2="BackgroundImageFix" result="effect1_dropShadow_39_11973"/>
<feBlend mode="normal" in="SourceGraphic" in2="effect1_dropShadow_39_11973" result="shape"/>
</filter>
<filter id="filter4_d_39_11973" x="432.978" y="60.0226" width="25.7373" height="25.4547" filterUnits="userSpaceOnUse" color-interpolation-filters="sRGB">
<feFlood flood-opacity="0" result="BackgroundImageFix"/>
<feColorMatrix in="SourceAlpha" type="matrix" values="0 0 0 0 0 0 0 0 0 0 0 0 0 0 0 0 0 0 127 0" result="hardAlpha"/>
<feOffset/>
<feGaussianBlur stdDeviation="5"/>
<feComposite in2="hardAlpha" operator="out"/>
<feColorMatrix type="matrix" values="0 0 0 0 0.972549 0 0 0 0 0.878431 0 0 0 0 0.0196078 0 0 0 0.5 0"/>
<feBlend mode="normal" in2="BackgroundImageFix" result="effect1_dropShadow_39_11973"/>
<feBlend mode="normal" in="SourceGraphic" in2="effect1_dropShadow_39_11973" result="shape"/>
</filter>
<filter id="filter5_d_39_11973" x="428.549" y="111.864" width="27.792" height="27.408" filterUnits="userSpaceOnUse" color-interpolation-filters="sRGB">
<feFlood flood-opacity="0" result="BackgroundImageFix"/>
<feColorMatrix in="SourceAlpha" type="matrix" values="0 0 0 0 0 0 0 0 0 0 0 0 0 0 0 0 0 0 127 0" result="hardAlpha"/>
<feOffset/>
<feGaussianBlur stdDeviation="5"/>
<feComposite in2="hardAlpha" operator="out"/>
<feColorMatrix type="matrix" values="0 0 0 0 0.972549 0 0 0 0 0.878431 0 0 0 0 0.0196078 0 0 0 0.5 0"/>
<feBlend mode="normal" in2="BackgroundImageFix" result="effect1_dropShadow_39_11973"/>
<feBlend mode="normal" in="SourceGraphic" in2="effect1_dropShadow_39_11973" result="shape"/>
</filter>
<filter id="filter6_d_39_11973" x="268.966" y="37.7721" width="28.2786" height="27.8719" filterUnits="userSpaceOnUse" color-interpolation-filters="sRGB">
<feFlood flood-opacity="0" result="BackgroundImageFix"/>
<feColorMatrix in="SourceAlpha" type="matrix" values="0 0 0 0 0 0 0 0 0 0 0 0 0 0 0 0 0 0 127 0" result="hardAlpha"/>
<feOffset/>
<feGaussianBlur stdDeviation="5"/>
<feComposite in2="hardAlpha" operator="out"/>
<feColorMatrix type="matrix" values="0 0 0 0 0.972549 0 0 0 0 0.878431 0 0 0 0 0.0196078 0 0 0 0.5 0"/>
<feBlend mode="normal" in2="BackgroundImageFix" result="effect1_dropShadow_39_11973"/>
<feBlend mode="normal" in="SourceGraphic" in2="effect1_dropShadow_39_11973" result="shape"/>
</filter>
<filter id="filter7_d_39_11973" x="69.0381" y="99.0774" width="28.2786" height="27.8706" filterUnits="userSpaceOnUse" color-interpolation-filters="sRGB">
<feFlood flood-opacity="0" result="BackgroundImageFix"/>
<feColorMatrix in="SourceAlpha" type="matrix" values="0 0 0 0 0 0 0 0 0 0 0 0 0 0 0 0 0 0 127 0" result="hardAlpha"/>
<feOffset/>
<feGaussianBlur stdDeviation="5"/>
<feComposite in2="hardAlpha" operator="out"/>
<feColorMatrix type="matrix" values="0 0 0 0 0.972549 0 0 0 0 0.878431 0 0 0 0 0.0196078 0 0 0 0.5 0"/>
<feBlend mode="normal" in2="BackgroundImageFix" result="effect1_dropShadow_39_11973"/>
<feBlend mode="normal" in="SourceGraphic" in2="effect1_dropShadow_39_11973" result="shape"/>
</filter>
<linearGradient id="paint0_linear_39_11973" x1="108" y1="551" x2="385.46" y2="301.084" gradientUnits="userSpaceOnUse">
<stop stop-color="#0031AA"/>
<stop offset="1" stop-color="#00D7FF"/>
</linearGradient>
<linearGradient id="paint1_linear_39_11973" x1="570.146" y1="165.873" x2="538.587" y2="63.0413" gradientUnits="userSpaceOnUse">
<stop stop-color="#93A5CF"/>
<stop offset="1" stop-color="#E4EFE9"/>
</linearGradient>
<linearGradient id="paint2_linear_39_11973" x1="306.406" y1="114.739" x2="257.928" y2="84.1073" gradientUnits="userSpaceOnUse">
<stop stop-color="#5F676D"/>
<stop offset="1" stop-color="#3C4143"/>
</linearGradient>
<linearGradient id="paint3_linear_39_11973" x1="224.406" y1="126.239" x2="178.128" y2="104.414" gradientUnits="userSpaceOnUse">
<stop stop-color="#868F96"/>
<stop offset="1" stop-color="#596164"/>
</linearGradient>
<linearGradient id="paint4_linear_39_11973" x1="404.406" y1="196.238" x2="418.274" y2="132.084" gradientUnits="userSpaceOnUse">
<stop stop-color="#93A5CF"/>
<stop offset="1" stop-color="#E4EFE9"/>
</linearGradient>
<linearGradient id="paint5_linear_39_11973" x1="533.872" y1="408.613" x2="382.298" y2="261.823" gradientUnits="userSpaceOnUse">
<stop stop-color="#F78361"/>
<stop offset="1" stop-color="#F54B64"/>
</linearGradient>
<linearGradient id="paint6_linear_39_11973" x1="173.406" y1="145.239" x2="102.025" y2="87.8986" gradientUnits="userSpaceOnUse">
<stop stop-color="#E4EFE9"/>
<stop offset="1" stop-color="#93A5CF"/>
</linearGradient>
</defs>
</svg>
